<?xml version="1.0" encoding="utf-8"?>
<!-- Generator: Adobe Illustrator 24.3.0, SVG Export Plug-In . SVG Version: 6.00 Build 0)  -->
<svg version="1.1" id="Layer_1" xmlns="http://www.w3.org/2000/svg" xmlns:xlink="http://www.w3.org/1999/xlink" x="0px" y="0px"
	 viewBox="0 0 28.8 31.5" style="enable-background:new 0 0 28.8 31.5;" xml:space="preserve">
<style type="text/css">
	.st0{fill-rule:evenodd;clip-rule:evenodd;fill:url(#SVGID_1_);}
	.st1{fill-rule:evenodd;clip-rule:evenodd;fill:#AC1C37;}
	.st2{filter:url(#Adobe_OpacityMaskFilter);}
	.st3{fill-rule:evenodd;clip-rule:evenodd;fill:#FFFFFF;}
	.st4{mask:url(#c_1_);fill-rule:evenodd;clip-rule:evenodd;fill:#90152C;}
	.st5{fill:#FEFEFE;}
	.st6{fill-rule:evenodd;clip-rule:evenodd;fill:#FEFEFE;}
</style>
<g>
	
		<linearGradient id="SVGID_1_" gradientUnits="userSpaceOnUse" x1="-219.355" y1="427.531" x2="-218.7318" y2="426.6895" gradientTransform="matrix(27.024 0 0 -30.9665 5936.3599 13243.5742)">
		<stop  offset="0" style="stop-color:#FFAD66"/>
		<stop  offset="1" style="stop-color:#FF5075"/>
	</linearGradient>
	<path class="st0" d="M27.2,10.7l-2.1-6l-0.5-0.5L24.2,4l-3.7-1.7l-3.5-2l-3,0.1l-1.3,0.2c-0.1,0-0.1,0-0.2,0.1L10.4,2L5.8,3.3
		L3.6,6.5l-2.7,8.1l1.6,5.9l2.4,3.8l6.6,1.9l0.5-0.1l0.8,0.9l0.1,0.1l0,0.1l-0.7,3.9l0,0.1l0.1,0.1l0.1,0l4.8,0l0.1-0.1l0-0.1l0-0.2
		l-0.9-3.8l0-0.1l0.7-1.6l1.2-0.2l4.1-0.1l2.8-2.2l2.9-9.8L27.2,10.7z"/>
	<g transform="translate(11.953 25.34)">
		<g>
			<polygon id="b_1_" class="st1" points="-0.1,0.6 0.9,1.8 1,1.9 1,2 0.3,5.9 0.3,6 0.4,6.1 0.5,6.2 5.2,6.2 5.3,6.1 5.4,6 
				5.3,5.8 4.5,2 4.5,1.9 4.5,1.8 5.3,-0.3 			"/>
		</g>
		<defs>
			<filter id="Adobe_OpacityMaskFilter" filterUnits="userSpaceOnUse" x="-1.2" y="-2.5" width="9.9" height="5.2">
				<feColorMatrix  type="matrix" values="1 0 0 0 0  0 1 0 0 0  0 0 1 0 0  0 0 0 1 0"/>
			</filter>
		</defs>
		<mask maskUnits="userSpaceOnUse" x="-1.2" y="-2.5" width="9.9" height="5.2" id="c_1_">
			<g class="st2">
				<polygon id="b_2_" class="st3" points="-0.1,0.6 0.9,1.8 1,1.9 1,2 0.3,5.9 0.3,6 0.4,6.1 0.5,6.2 5.2,6.2 5.3,6.1 5.4,6 
					5.3,5.8 4.5,2 4.5,1.9 4.5,1.8 5.3,-0.3 				"/>
			</g>
		</mask>
		<polygon class="st4" points="-0.5,-2.5 8.7,-0.4 8,2.7 -1.2,0.6 		"/>
	</g>
	<g>
		<path class="st5" d="M11.3,25.5l0,0.4l0.1-0.4l-6.7-2L5,23.8l-2.6-4.3l0,0.1l-1.6-5l-0.4,0.1l0.4,0c0,0.1,0,0.1,0,0.2
			c0-0.1,0.1-0.1,0.1-0.2c0,0,0.1-0.2,0.1-0.2c0.1-0.1,0.1-0.1,0.1-0.1L4,5.7L3.9,5.9l2.2-2.4L5.8,3.6l4.7-1.1l0.1-0.1l1.7-1.1
			l-0.2-0.4l0.2,0.4l0.4-0.2l-0.2-0.4l0.1,0.4L13,1.1l-0.1-0.4L13,1.1l1-0.1l2.9-0.1l-0.2-0.1l3.6,2L24,4.4l0.4,0.2l-0.1-0.1
			l0.5,0.6l-0.1-0.1l1.2,2.8l0.9,3l0.1,0.1l1.1,1.7l-0.1-0.3l-1.1,5.6L26.1,20L25,23l0.4,0.1l0.1-0.4l-0.2,0l-0.2,0l-0.2,0.2
			L24.7,23l0.3,0.3l-0.3-0.4l-2.3,1.6l0.3,0.4l-0.2-0.4l-0.4,0.2l0.2,0.4l0-0.4l-0.4,0l-3.7,0L12,25.5l-0.4,0l0,0.4l0-0.4L11.3,25.5
			z M12.2,26.4l6.1-0.9l3.7,0l0.5,0l0.1,0l0.4-0.2l0.1-0.1l2.3-1.6l0.1-0.1l0.2-0.2l-0.3-0.3l-0.1,0.4l0.2,0l0.4,0.1l0.1-0.4l1.1-3
			l0.7-2.1l1.1-5.7l0-0.2l-0.1-0.2l-1.1-1.7l0.1,0.1l-0.9-3l-1.2-2.9l-0.1-0.1L24.9,4l-0.1-0.1l-0.4-0.3l-3.7-1.6l-3.6-2L16.9,0
			l-0.1,0l-3,0.1l-1,0.1l-0.4,0.1l-0.1,0l-0.4,0.2l-1.8,1.1l0.1-0.1L5.6,2.7l-0.1,0L5.4,2.9L3.2,5.3L3.1,5.4l0,0.1l-2.8,8.6l0.4,0.1
			L0.3,14c0,0,0-0.1-0.1,0.2c-0.1,0.1-0.1,0.1-0.1,0.2c0,0,0,0.1,0,0.1C0,14.6,0,14.6,0,14.7l0,0.1l1.6,5l0,0.1l2.6,4.3l0.1,0.2
			l0.2,0l6.7,2l0.1,0l0.4,0L12.2,26.4z"/>
		<polygon class="st5" points="4.6,12.6 4.2,12.5 9,20.4 9.6,20 4.7,12.2 4.6,11.9 4.3,12.1 0.5,14.3 0.8,14.9 		"/>
		<polygon class="st5" points="9.2,20.4 9.4,20.4 9.5,20.2 13.1,11.4 13.2,11.2 13,11 6,2.9 5.5,2.4 5.4,3.1 4.1,12.3 4.1,12.7 
			4.5,12.7 12.8,11.6 12.9,11.5 21.5,8.1 21.8,8 21.7,7.7 20.8,2.4 20.1,2.6 21.1,7.8 21.3,7.5 12.7,10.9 12.7,10.9 4.4,12 
			4.8,12.4 6.1,3.2 5.5,3.4 12.5,11.4 12.5,11.1 8.9,20 9.2,19.7 2,19.4 2,20 		"/>
		<polygon class="st5" points="14.8,4.5 14.4,4.4 14.3,4.7 12.5,11.1 12.4,11.4 12.6,11.5 19.8,15.4 19.9,14.8 9,19.7 9.3,20.3 
			20.1,15.4 20.7,15.2 20.2,14.8 12.9,10.9 13.1,11.3 15,4.9 14.5,5.2 21.1,8 21.4,7.4 		"/>
		<polygon class="st5" points="14.4,4.7 14.8,4.6 10.6,1.8 10.2,2.3 14.5,5.1 14.8,5.3 15,5 17.2,0.4 16.5,0.1 		"/>
		<polygon class="st5" points="26.1,21.7 26.1,21.1 8.9,19.9 8.8,20.5 		"/>
		<polygon class="st5" points="20.3,15 20.3,15.2 21.7,7.8 21.3,8.1 27,11 27.3,10.4 21.6,7.5 21.2,7.3 21.1,7.7 19.7,15.1 
			19.6,15.2 19.7,15.3 22.7,21.2 23.3,20.9 		"/>
		<polygon class="st5" points="25.5,15.3 25.6,15.3 25.7,15.3 28.5,12.6 28.1,12.2 25.2,14.8 25.4,14.7 20,14.8 20,15.5 		"/>
		<polygon class="st5" points="11.7,23.9 12.4,23.8 12,23.3 9.4,20 8.9,20.4 11.5,23.8 11.7,23.2 4.7,23.7 4.8,24.3 		"/>
		<polygon class="st5" points="23.2,21.3 23.3,21.3 23.3,21.2 25.8,15.1 25.8,15 25.7,14.8 21.7,7.6 21.1,7.9 25.2,15.2 25.1,14.9 
			22.7,21 22.8,20.8 17.9,24.5 18.4,25.1 		"/>
		<polygon class="st5" points="4.3,24 4.8,24.5 9.5,20.5 9.1,20 		"/>
		<polygon class="st5" points="11.6,23.1 11.5,23.8 18.3,25.1 18.4,24.5 		"/>
		<g transform="translate(11.505 10.185)">
			<path class="st6" d="M2,1c0,0.4-0.3,0.7-0.7,0.7C0.8,1.7,0.5,1.4,0.5,1c0-0.4,0.3-0.7,0.7-0.7C1.6,0.3,2,0.6,2,1"/>
			<path class="st5" d="M1.2,1.5C0.9,1.5,0.7,1.3,0.7,1c0-0.3,0.2-0.5,0.5-0.5c0.3,0,0.5,0.2,0.5,0.5h0.4c0-0.5-0.4-1-1-1
				c-0.5,0-1,0.4-1,1c0,0.5,0.4,1,1,1c0.5,0,1-0.4,1-1H1.7C1.7,1.3,1.5,1.5,1.2,1.5z"/>
		</g>
		<g transform="translate(20.093 6.973)">
			<path class="st6" d="M1.9,0.9c0,0.4-0.3,0.7-0.7,0.7c-0.4,0-0.7-0.3-0.7-0.7c0-0.4,0.3-0.7,0.7-0.7C1.6,0.2,1.9,0.5,1.9,0.9"/>
			<path class="st5" d="M1.2,1.4c-0.3,0-0.5-0.2-0.5-0.5c0-0.3,0.2-0.5,0.5-0.5c0.3,0,0.5,0.2,0.5,0.5h0.4c0-0.5-0.4-1-1-1
				c-0.5,0-1,0.4-1,1c0,0.5,0.4,1,1,1c0.5,0,1-0.4,1-1H1.7C1.7,1.2,1.5,1.4,1.2,1.4z"/>
		</g>
		<g transform="translate(8.102 19.178)">
			<path class="st6" d="M1.9,1c0,0.4-0.3,0.7-0.7,0.7C0.7,1.7,0.4,1.4,0.4,1s0.3-0.7,0.7-0.7C1.5,0.2,1.9,0.5,1.9,1"/>
			<path class="st5" d="M1.1,1.5C0.8,1.5,0.6,1.2,0.6,1c0-0.3,0.2-0.5,0.5-0.5c0.3,0,0.5,0.2,0.5,0.5h0.4c0-0.5-0.4-1-1-1
				c-0.5,0-1,0.4-1,1c0,0.5,0.4,1,1,1c0.5,0,1-0.4,1-1H1.7C1.7,1.2,1.4,1.5,1.1,1.5z"/>
		</g>
		<g transform="translate(18.797 14.2)">
			<path class="st6" d="M1.9,0.9c0,0.2-0.1,0.3-0.2,0.5C1.6,1.6,1.4,1.7,1.1,1.7c-0.4,0-0.7-0.3-0.7-0.7s0.3-0.7,0.7-0.7
				C1.5,0.2,1.9,0.5,1.9,0.9"/>
			<path class="st5" d="M1.5,1.3C1.4,1.4,1.3,1.5,1.1,1.5c-0.3,0-0.5-0.2-0.5-0.5c0-0.3,0.2-0.5,0.5-0.5c0.3,0,0.5,0.2,0.5,0.5h0.4
				c0-0.5-0.4-1-1-1c-0.5,0-1,0.4-1,1c0,0.5,0.4,1,1,1c0.3,0,0.6-0.1,0.7-0.3C2,1.4,2.1,1.2,2.1,0.9H1.7C1.7,1.1,1.6,1.2,1.5,1.3z"
				/>
		</g>
		<polygon class="st5" points="2.1,19.8 2.5,19.9 4.7,12.4 4.2,12.3 		"/>
		<polygon class="st5" points="10.6,2.3 10.4,1.9 5.8,3.3 5.9,3.7 		"/>
	</g>
</g>
</svg>
