<svg xmlns="http://www.w3.org/2000/svg" xmlns:xlink="http://www.w3.org/1999/xlink" width="138" height="40" viewBox="0 0 138 40">
  <defs>
    <polygon id="a" points="0 .918 .967 2.057 1.025 2.159 1.04 2.276 .355 6.146 .367 6.291 .424 6.413 .525 6.459 5.302 6.457 5.406 6.371 5.442 6.231 5.418 6.058 4.556 2.255 4.535 2.16 4.546 2.079 5.397 0"/>
  </defs>
  <g fill="none" fill-rule="evenodd">
    <g transform="translate(11.953 25.34)">
      <use fill="#FEFEFE" xlink:href="#a"/>
    </g>
    <path fill="#FEFEFE" fill-rule="nonzero" d="M11.3722349,25.8277184 L11.3482124,26.2751259 L11.4745462,25.8452534 L4.79951694,23.8835506 L5.05834304,24.0845074 L2.48597595,19.7563952 L2.5281165,19.8505338 L0.948237501,14.8416473 L0.520937033,14.9764244 L0.967101162,14.9353377 C0.977531581,15.0486025 0.966672394,15.0783097 0.932744855,15.1461364 C0.967693499,15.0870175 0.997376915,15.0407007 1.03689307,14.9808242 C1.06748315,14.934591 1.13766223,14.8295635 1.1442194,14.819694 C1.20565743,14.7272209 1.21256057,14.7164158 1.23222231,14.6718744 L4.02894486,6.02320796 L3.93558919,6.18523429 L6.1341326,3.74302272 L5.90466685,3.87917654 L10.6070349,2.76237906 L10.7498968,2.7006732 L12.4563281,1.57713061 L12.2099351,1.20291004 L12.4114576,1.60308404 L12.7912767,1.411812 L12.5897542,1.011638 L12.7087001,1.44361303 L13.095973,1.33697606 L12.9770271,0.905001023 L13.033262,1.34950996 L13.9904256,1.22841917 L16.8974096,1.17728244 L16.6696954,1.11994528 L20.3082783,3.16387417 L24.0266523,4.72886956 L24.4036214,4.95489992 L24.2971836,4.86793351 L24.836449,5.46840888 L24.7569471,5.34310267 L25.94453,8.15982843 L26.811741,11.1515179 L26.872993,11.2805564 L28.0122883,12.9342325 L27.9415026,12.5941837 L26.8457957,18.2065969 L26.1450824,20.2571715 L25.0910037,23.2524986 L25.5136506,23.4012272 L25.5853072,22.9589424 L25.3573185,22.9220049 L25.1242788,22.8842491 L24.9613751,23.0551156 L24.7640117,23.2621263 L25.0882985,23.5713004 L24.8283563,23.2063613 L22.5635389,24.8195667 L22.8234812,25.1845058 L22.6629902,24.7661839 L22.2611338,24.9203579 L22.4216248,25.3386798 L22.3777378,24.8927824 L21.9567608,24.9342166 L18.2331418,24.9547145 L12.118509,25.8177006 L11.7429898,25.8524863 L11.7849072,26.2985731 L11.8089296,25.8511656 L11.3722349,25.8277184 Z M12.2233336,26.7074013 L18.298744,25.8463721 L22.0033427,25.8281579 L22.4655118,25.7845771 L22.5821158,25.7570016 L22.9839722,25.6028277 L23.0834235,25.5494449 L25.3482408,23.9362395 L25.4125853,23.8804745 L25.6099487,23.6734638 L25.2856619,23.3642897 L25.2140053,23.8065746 L25.4419939,23.8435121 L25.8119058,23.9034432 L25.9362974,23.5499559 L26.9919806,20.549988 L27.709797,18.4365367 L28.8210024,12.7658877 L28.8571015,12.5809813 L28.7502166,12.4258389 L27.6109213,10.7721628 L27.6721733,10.9012012 L26.7876031,7.86060206 L25.582661,4.99496663 L25.5031592,4.86966042 L24.9638938,4.26918504 L24.857456,4.18221863 L24.4270808,3.92943761 L20.7012256,2.36014455 L17.1085679,0.338668663 L17.0024953,0.279083727 L16.8808536,0.281331498 L13.9259128,0.335934769 L12.9207923,0.460492089 L12.4708084,0.579662965 L12.3882317,0.611464 L12.0084126,0.802736044 L10.2571108,1.95223206 L10.3999726,1.8905262 L5.69760456,3.00732368 L5.56163839,3.03961522 L5.46813881,3.1434775 L3.2695954,5.58568907 L3.20563137,5.65674234 L3.17623973,5.7477154 L0.395976769,14.3531908 L0.822329334,14.4909371 L0.412436353,14.3099998 C0.424882825,14.2818038 0.441973327,14.2560801 0.298335922,14.4730821 C0.243075414,14.5567936 0.207633562,14.6120956 0.179719001,14.6585362 C0.160415622,14.6906506 0.144611934,14.7186642 0.131312311,14.7452523 C0.0818682775,14.8440989 0.0634448935,14.8944993 0.0747729035,15.0175111 L0.0936365645,15.1112015 L1.67351556,20.120088 L1.71565611,20.2142266 L4.2880232,24.5423387 L4.37796008,24.6936612 L4.5468493,24.7432955 L11.2218786,26.7049983 L11.3241899,26.7225333 L11.7608847,26.7459806 L12.2233336,26.7074013 Z"/>
    <polygon fill="#FEFEFE" fill-rule="nonzero" points="4.698 12.909 4.238 12.797 9.072 20.667 9.644 20.315 4.811 12.445 4.636 12.161 4.351 12.333 .571 14.613 .919 15.189"/>
    <polygon fill="#FEFEFE" fill-rule="nonzero" points="9.235 20.692 9.473 20.705 9.563 20.484 13.164 11.634 13.242 11.442 13.106 11.286 6.054 3.222 5.57 2.668 5.469 3.397 4.192 12.575 4.131 13.013 4.57 12.955 12.898 11.841 12.978 11.82 21.605 8.363 21.859 8.262 21.81 7.992 20.858 2.713 20.197 2.833 21.149 8.111 21.355 7.74 12.728 11.196 12.808 11.175 4.481 12.289 4.858 12.668 6.134 3.489 5.549 3.664 12.6 11.729 12.542 11.381 8.941 20.23 9.27 20.021 2.118 19.65 2.083 20.321"/>
    <polygon fill="#FEFEFE" fill-rule="nonzero" points="14.857 4.814 14.509 4.664 14.402 5.028 12.531 11.413 12.454 11.674 12.693 11.803 19.904 15.701 19.925 15.099 9.114 19.986 9.39 20.598 20.202 15.711 20.82 15.432 20.224 15.11 13.013 11.212 13.176 11.602 15.047 5.217 14.592 5.431 21.213 8.277 21.479 7.659"/>
    <polygon fill="#FEFEFE" fill-rule="nonzero" points="14.422 4.978 14.91 4.843 10.689 2.047 10.318 2.607 14.539 5.403 14.861 5.616 15.028 5.268 17.222 .693 16.616 .403"/>
    <polygon fill="#FEFEFE" fill-rule="nonzero" points="26.152 22.006 26.197 21.335 8.93 20.155 8.884 20.826"/>
    <polygon fill="#FEFEFE" fill-rule="nonzero" points="20.364 15.255 20.394 15.469 21.809 8.114 21.325 8.349 27.088 11.324 27.396 10.727 21.633 7.752 21.234 7.546 21.149 7.987 19.734 15.342 19.712 15.454 19.763 15.556 22.747 21.507 23.347 21.206"/>
    <polygon fill="#FEFEFE" fill-rule="nonzero" points="25.531 15.617 25.656 15.614 25.749 15.53 28.607 12.929 28.155 12.432 25.297 15.033 25.515 14.945 20.056 15.069 20.071 15.741"/>
    <polygon fill="#FEFEFE" fill-rule="nonzero" points="11.812 24.16 12.442 24.12 12.056 23.62 9.485 20.286 8.953 20.696 11.524 24.03 11.769 23.489 4.789 23.935 4.831 24.605"/>
    <polygon fill="#FEFEFE" fill-rule="nonzero" points="23.252 21.623 23.324 21.568 23.358 21.484 25.834 15.408 25.895 15.258 25.816 15.117 21.772 7.887 21.186 8.215 25.23 15.445 25.212 15.154 22.736 21.23 22.842 21.09 18.016 24.802 18.425 25.334"/>
    <polygon fill="#FEFEFE" fill-rule="nonzero" points="4.414 24.271 4.85 24.782 9.576 20.746 9.14 20.235"/>
    <polygon fill="#FEFEFE" fill-rule="nonzero" points="11.71 23.418 11.581 24.078 18.336 25.398 18.465 24.738"/>
    <g fill="#FEFEFE" transform="translate(11.505 10.185)">
      <path d="M2.03504445,1.26820913 C2.03504445,1.6746823 1.70270273,2.0040685 1.29258234,2.0040685 C0.883110115,2.0040685 0.551416544,1.6746823 0.551416544,1.26820913 C0.551416544,0.862378352 0.883110115,0.532670957 1.29258234,0.532670957 C1.70270273,0.532670957 2.03504445,0.862378352 2.03504445,1.26820913"/>
      <path fill-rule="nonzero" d="M1.29258234,1.78004252 C1.00650394,1.78004252 0.775442518,1.55062089 0.775442518,1.26820913 C0.775442518,0.986279168 1.00666568,0.756696931 1.29258234,0.756696931 C1.57926031,0.756696931 1.81101848,0.986394063 1.81101848,1.26820913 L2.25907043,1.26820913 C2.25907043,0.738041446 1.82582106,0.308644983 1.29258234,0.308644983 C0.75992494,0.308644983 0.32739057,0.73810977 0.32739057,1.26820913 C0.32739057,1.79879028 0.759763194,2.22809447 1.29258234,2.22809447 C1.8259831,2.22809447 2.25907043,1.79885861 2.25907043,1.26820913 L1.81101848,1.26820913 C1.81101848,1.55050599 1.57942235,1.78004252 1.29258234,1.78004252 Z"/>
    </g>
    <g fill="#FEFEFE" transform="translate(20.093 6.973)">
      <path d="M1.99200693,1.19292086 C1.99200693,1.59907283 1.6596652,1.92878022 1.24954482,1.92878022 C0.840720746,1.92878022 0.50837902,1.59907283 0.50837902,1.19292086 C0.50837902,0.787090078 0.840720746,0.457061488 1.24954482,0.457061488 C1.6596652,0.457061488 1.99200693,0.787090078 1.99200693,1.19292086"/>
      <path fill-rule="nonzero" d="M1.24954482,1.70475425 C0.96398742,1.70475425 0.732404994,1.47488484 0.732404994,1.19292086 C0.732404994,0.911151948 0.964114111,0.681087462 1.24954482,0.681087462 C1.53613115,0.681087462 1.76798096,0.911013989 1.76798096,1.19292086 L2.2160329,1.19292086 C2.2160329,0.662722411 1.78275179,0.233035514 1.24954482,0.233035514 C0.717373475,0.233035514 0.284353046,0.662982441 0.284353046,1.19292086 C0.284353046,1.72308482 0.717276769,2.1528062 1.24954482,2.1528062 C1.78284865,2.1528062 2.2160329,1.72334481 2.2160329,1.19292086 L1.76798096,1.19292086 C1.76798096,1.47502272 1.53625796,1.70475425 1.24954482,1.70475425 Z"/>
    </g>
    <g fill="#FEFEFE" transform="translate(8.102 19.178)">
      <path d="M1.9476893,1.23339152 C1.9476893,1.63954349 1.61534757,1.96925088 1.20522719,1.96925088 C0.795754959,1.96925088 0.464061389,1.63954349 0.464061389,1.23339152 C0.464061389,0.827239542 0.795754959,0.497853343 1.20522719,0.497853343 C1.61534757,0.497853343 1.9476893,0.827239542 1.9476893,1.23339152"/>
      <path fill-rule="nonzero" d="M1.20522719,1.74522491 C0.919275483,1.74522491 0.688087363,1.51560826 0.688087363,1.23339152 C0.688087363,0.951266548 0.919183811,0.721879317 1.20522719,0.721879317 C1.49203205,0.721879317 1.72366332,0.951381466 1.72366332,1.23339152 L2.17171527,1.23339152 C2.17171527,0.7029983 1.73856286,0.273827369 1.20522719,0.273827369 C0.672473069,0.273827369 0.240035415,0.703066661 0.240035415,1.23339152 C0.240035415,1.76374718 0.672504735,2.19327686 1.20522719,2.19327686 C1.73853102,2.19327686 2.17171527,1.76381547 2.17171527,1.23339152 L1.72366332,1.23339152 C1.72366332,1.51549338 1.49194033,1.74522491 1.20522719,1.74522491 Z"/>
    </g>
    <g fill="#FEFEFE" transform="translate(18.797 14.2)">
      <path d="M1.9476893,1.22272782 C1.9476893,1.40307921 1.88254967,1.5686556 1.77301139,1.69665209 C1.63689874,1.85660755 1.43305384,1.95858719 1.20522719,1.95826599 C0.795754959,1.95826599 0.464061389,1.62887979 0.464061389,1.22272782 C0.464061389,0.816575844 0.795754959,0.486868449 1.20522719,0.486868449 C1.61534757,0.486868449 1.9476893,0.816575844 1.9476893,1.22272782"/>
      <path fill-rule="nonzero" d="M1.60280457,1.55099058 C1.50428382,1.66676781 1.36062781,1.73445888 1.20554302,1.73424024 C0.919183811,1.73424002 0.688087363,1.50485279 0.688087363,1.22272782 C0.688087363,0.940511076 0.919275483,0.710894423 1.20522719,0.710894423 C1.49194033,0.710894423 1.72366332,0.940625949 1.72366332,1.22272782 L2.17171527,1.22272782 C2.17171527,0.692303861 1.73853102,0.262842475 1.20522719,0.262842475 C0.672504735,0.262842475 0.240035415,0.692372148 0.240035415,1.22272782 C0.240035415,1.75305267 0.672473069,2.18229196 1.20522719,2.18229196 C1.49293805,2.18269781 1.76109364,2.05634223 1.94362635,1.84183533 C2.0899531,1.67085253 2.17171527,1.45282441 2.17171527,1.22272782 L1.72366332,1.22272782 C1.72366332,1.34520818 1.68057031,1.46012059 1.60280457,1.55099058 Z"/>
    </g>
    <polygon fill="#FEFEFE" fill-rule="nonzero" points="2.172 20.043 2.603 20.166 4.741 12.683 4.31 12.56"/>
    <polygon fill="#FEFEFE" fill-rule="nonzero" points="10.636 2.614 10.511 2.184 5.88 3.535 6.006 3.965"/>
    <path fill="#FFFFFF" d="M36.1963782,32.1159461 C37.0230542,32.1159461 37.6966421,31.4421821 37.6966421,30.5846643 L37.6966421,10.6473744 C37.6966421,9.82048217 37.0230542,9.14671815 36.1963782,9.14671815 C35.3390845,9.14671815 34.6654967,9.82048217 34.6654967,10.6473744 L34.6654967,30.5846643 C34.6654967,31.4421821 35.3390845,32.1159461 36.1963782,32.1159461 L36.1963782,32.1159461 Z M47.2187252,16.7112506 C42.9628746,16.7112506 39.5336999,20.1413219 39.5336999,24.3982855 C39.5336999,28.6246235 42.9628746,32.0853205 47.2187252,32.0853205 C48.3515776,32.0853205 49.9130767,32.1159461 51.9338403,30.7684181 C52.6380458,30.3090335 53.036075,29.512767 52.6686635,28.747126 C52.3012519,28.0121107 51.3521054,27.5833518 50.6478998,28.0427364 C49.1782536,28.9921311 47.9229307,29.0533824 47.2187252,29.0533824 C45.167344,29.0533824 43.4527567,27.73648 42.8097864,25.8989418 L53.372869,25.8989418 C54.2301626,25.8989418 54.9037505,25.2251777 54.9037505,24.3982855 C54.9037505,19.4063066 50.9234585,16.7112506 47.2187252,16.7112506 L47.2187252,16.7112506 Z M47.2187252,19.7431887 C49.0557831,19.7431887 51.0153114,20.7232091 51.6582817,22.8670037 L42.8097864,22.8670037 C43.4527567,21.0600911 45.167344,19.7431887 47.2187252,19.7431887 L47.2187252,19.7431887 Z M64.5176865,16.7725018 C60.2006006,16.7725018 56.771426,20.2025732 56.771426,24.5207881 C56.771426,28.8390029 60.2006006,32.0546949 64.5176865,32.0546949 C66.2628915,32.0546949 67.7325377,31.6259359 69.0490958,30.523413 C69.0490958,31.4115565 69.9063895,32.0546949 70.5187421,32.0546949 C71.4066534,32.0546949 72.0496236,31.4115565 72.0496236,30.523413 L72.0496236,24.5207881 C72.0496236,20.2025732 68.8347724,16.7725018 64.5176865,16.7725018 L64.5176865,16.7725018 Z M64.5176865,29.0533824 C61.9458055,29.0533824 59.7719538,27.0933416 59.7719538,24.5207881 C59.7719538,21.9482345 61.9458055,19.7738143 64.5176865,19.7738143 C67.0895675,19.7738143 69.0490958,21.9482345 69.0490958,24.5207881 C69.0490958,27.0933416 67.0895675,29.0533824 64.5176865,29.0533824 L64.5176865,29.0533824 Z M81.5717068,16.7112506 C77.3464737,16.7112506 73.8866815,20.1413219 73.8866815,24.3982855 L73.8866815,30.5540386 C73.8866815,31.4115565 74.5602694,32.0853205 75.3869454,32.0853205 C76.244239,32.0853205 76.9178269,31.4115565 76.9178269,30.5540386 L76.9178269,24.3982855 C76.9178269,21.825732 78.9998258,19.7431887 81.5717068,19.7431887 C84.1435877,19.7431887 86.2255866,21.825732 86.2255866,24.3982855 L86.2255866,30.5540386 C86.2255866,31.4115565 86.8991745,32.0853205 87.7258505,32.0853205 C88.5831442,32.0853205 89.2567321,31.4115565 89.2567321,30.5540386 L89.2567321,24.3982855 C89.2567321,20.1413219 85.7969398,16.7112506 81.5717068,16.7112506 L81.5717068,16.7112506 Z M98.7788152,32.207823 C103.034666,32.207823 106.46384,28.7777517 106.46384,24.5207881 C106.46384,20.2944501 103.034666,16.8337531 98.7788152,16.8337531 C94.5535822,16.8337531 91.0937899,20.2944501 91.0937899,24.5207881 L91.0937899,24.5514137 L91.0937899,38.2716992 C91.0937899,39.0985914 91.7673778,39.7723555 92.6246714,39.7723555 C93.4513475,39.7723555 94.1249353,39.0985914 94.1249353,38.2716992 L94.1249353,30.6459155 C95.4108758,31.6259359 97.0336102,32.207823 98.7788152,32.207823 L98.7788152,32.207823 Z M98.7788152,19.8656912 C101.350696,19.8656912 103.432695,21.9788602 103.432695,24.5207881 C103.432695,27.0933416 101.350696,29.175885 98.7788152,29.175885 C96.2069342,29.175885 94.1249353,27.0933416 94.1249353,24.5514137 L94.1249353,24.5207881 C94.1249353,21.9482345 96.2069342,19.8656912 98.7788152,19.8656912 L98.7788152,19.8656912 Z M116.016541,16.7725018 C111.699455,16.7725018 108.270281,20.2025732 108.270281,24.5207881 C108.270281,28.8390029 111.699455,32.0546949 116.016541,32.0546949 C117.761746,32.0546949 119.231392,31.6259359 120.547951,30.523413 C120.547951,31.4115565 121.405244,32.0546949 122.017597,32.0546949 C122.905508,32.0546949 123.548478,31.4115565 123.548478,30.523413 L123.548478,24.5207881 C123.548478,20.2025732 120.333627,16.7725018 116.016541,16.7725018 L116.016541,16.7725018 Z M116.016541,29.0533824 C113.44466,29.0533824 111.270808,27.0933416 111.270808,24.5207881 C111.270808,21.9482345 113.44466,19.7738143 116.016541,19.7738143 C118.588422,19.7738143 120.547951,21.9482345 120.547951,24.5207881 C120.547951,27.0933416 118.588422,29.0533824 116.016541,29.0533824 L116.016541,29.0533824 Z M136.19356,16.8337531 C135.366884,16.8337531 134.693296,17.5075171 134.693296,18.3344093 L134.693296,25.9295674 C134.693296,27.6752287 133.284885,29.084008 131.53968,29.084008 C129.825093,29.084008 128.386064,27.6752287 128.386064,25.9295674 L128.386064,18.3344093 C128.386064,17.5075171 127.712476,16.8337531 126.8858,16.8337531 C126.059124,16.8337531 125.385536,17.5075171 125.385536,18.3344093 L125.385536,25.960193 C125.385536,25.960193 125.385536,25.960193 125.385536,25.9908187 C125.416154,29.3596388 128.171741,32.0853205 131.53968,32.0853205 C132.70315,32.0853205 133.774767,31.7790641 134.693296,31.2278027 L134.693296,33.4328485 C134.693296,35.2397611 133.22365,36.7097917 131.386592,36.7097917 C130.131269,36.7097917 128.998417,36.0054021 128.416682,34.8722535 C128.079888,34.1372382 127.161359,33.8003562 126.426536,34.1678638 C125.661095,34.5353715 125.354919,35.4541406 125.72233,36.1891559 C126.793947,38.3635762 128.967799,39.7417298 131.386592,39.7417298 C134.877002,39.7417298 137.724441,36.8935456 137.724441,33.4328485 L137.724441,18.3344093 C137.724441,17.5075171 137.050853,16.8337531 136.19356,16.8337531 L136.19356,16.8337531 Z"/>
  </g>
</svg>
