<svg xmlns="http://www.w3.org/2000/svg" xmlns:xlink="http://www.w3.org/1999/xlink" width="150" height="44" viewBox="0 0 150 44">
    <defs>
        <linearGradient id="a" x1="0%" x2="0%" y1="0%" y2="228.169%">
            <stop offset="0%" stop-color="#FFAD66"/>
            <stop offset="100%" stop-color="#FF5075"/>
        </linearGradient>
        <linearGradient id="b" x1="22.282%" x2="84.599%" y1="17.228%" y2="101.386%">
            <stop offset="0%" stop-color="#FFAD66"/>
            <stop offset="100%" stop-color="#FF5075"/>
        </linearGradient>
        <path id="c" d="M.017 1.02L1.07 2.265l.063.111.016.128-.745 4.222.013.158.062.133.11.05 5.193-.001.113-.095.04-.153-.027-.189L4.97 2.48l-.023-.103.012-.089L5.884.02z"/>
        <path id="e" d="M.264 1.313L.017 1.02 5.884.019 4.96 2.287l-.012.089.005.023L.264 1.313z"/>
        <path id="g" d="M12.287 27.878l-.026.489.138-.47-7.257-2.14.282.22-2.797-4.723.046.103-1.717-5.465-.465.147.485-.045c.012.124 0 .156-.037.23.038-.064.07-.115.113-.18l.117-.176a.88.88 0 0 0 .095-.161l3.04-9.436-.1.176 2.39-2.664-.25.148 5.111-1.218.156-.068 1.855-1.225-.268-.409.219.437.413-.209-.22-.436.13.47.421-.115-.13-.472.062.485 1.04-.132 3.16-.056-.247-.062 3.955 2.23 4.042 1.707.41.247-.115-.095.586.655-.087-.136 1.291 3.073.943 3.264.067.14 1.238 1.805-.077-.371-1.191 6.123-.762 2.238-1.146 3.268.46.162.078-.483-.248-.04-.253-.041-.177.186-.215.226.352.338-.282-.399-2.462 1.76.283.399-.175-.457-.437.168.175.457-.048-.487-.458.046-4.047.022-6.647.942-.409.037.046.487.026-.488-.475-.026zm.926.96l6.604-.94 4.027-.02.502-.047.127-.03.437-.168.108-.058 2.462-1.76.07-.061.215-.226-.353-.337-.078.482.248.04.402.066.135-.386 1.148-3.273.78-2.306 1.208-6.187.04-.202-.117-.169-1.238-1.804.066.14-.961-3.317-1.31-3.126-.087-.137-.586-.655-.115-.095-.468-.276-4.05-1.712L18.522.068l-.115-.065-.132.003-3.213.06L13.971.2l-.49.13-.09.035-.412.209-1.904 1.254.155-.067L6.12 2.98l-.148.035-.102.114-2.39 2.664-.07.078-.031.099-3.023 9.39.464.15-.446-.198c.014-.03.032-.059-.124.178-.06.091-.098.152-.129.202a1.405 1.405 0 0 0-.052.095.45.45 0 0 0-.062.297l.02.102 1.718 5.465.046.103 2.796 4.722.098.165.184.054 7.256 2.14.111.02.475.025.503-.042z"/>
        <path id="i" d="M4.507.835l-.5-.123L9.261 9.3l.623-.384L4.63.329l-.19-.31-.31.188L.02 2.694l.378.628z"/>
        <path id="k" d="M7.788 19.716l.26.013.098-.241 3.914-9.655.085-.21-.148-.17L4.33.655 3.805.05l-.11.795L2.307 10.86l-.066.478.476-.064 9.053-1.216.088-.023 9.377-3.77.277-.112-.053-.294-1.035-5.76-.72.131 1.036 5.759.224-.405-9.378 3.77.087-.023-9.053 1.216.41.414L4.419.946l-.637.191 7.666 8.8-.064-.38-3.914 9.655.357-.228-7.773-.406-.038.733z"/>
        <path id="m" d="M6.25.208L5.871.045l-.116.397-2.034 6.966-.084.285.26.141 7.839 4.253.023-.657L.006 16.762l.301.668 11.753-5.332.672-.305-.649-.351-7.838-4.253.177.426L6.456.648l-.494.234 7.197 3.104.289-.673z"/>
        <path id="o" d="M4.501 5.055l.531-.147L.443 1.857l-.403.611 4.589 3.05.35.233.181-.38L7.545.382 6.887.062z"/>
        <path id="q" d="M18.827 2.027l.05-.732L.107.008.057.74z"/>
        <path id="s" d="M.76 8.438l.032.233L2.331.647l-.527.257L8.07 4.15l.335-.652L2.14.252 1.706.028l-.093.48L.075 8.534l-.024.122.056.111L3.35 15.26l.653-.329z"/>
        <path id="u" d="M6.001 3.488l.137-.003.1-.092L9.347.555 8.854.013 5.747 2.85l.238-.095-5.935.136.017.733z"/>
        <path id="w" d="M7.665 4.302l.685-.044-.42-.546L5.137.075l-.579.448L7.352 4.16l.266-.59-7.588.486.046.732z"/>
        <path id="y" d="M5.7 15.01l.077-.06.038-.092 2.691-6.63.067-.163-.086-.154L4.091.023 3.453.38 7.85 8.269l-.02-.317-2.69 6.629.115-.152-5.247 4.049.446.581z"/>
        <path id="A" d="M.072 4.423l.475.557L5.684.577 5.21.02z"/>
        <path id="C" d="M.204.03l-.14.72 7.342 1.44.14-.72z"/>
        <path id="E" d="M1.667.827a.805.805 0 0 1-.807.803.804.804 0 0 1-.805-.803c0-.443.36-.802.805-.802.446 0 .807.36.807.802z"/>
        <path id="G" d="M1.085 1.611a.56.56 0 0 1-.562-.558.56.56 0 0 1 .562-.558c.312 0 .564.25.564.558h.487a1.049 1.049 0 0 0-2.1 0c0 .579.47 1.047 1.05 1.047.58 0 1.05-.468 1.05-1.047h-.487a.56.56 0 0 1-.564.558z"/>
        <path id="I" d="M1.655.854a.805.805 0 0 1-.807.803.805.805 0 0 1-.805-.803.805.805 0 1 1 1.613 0z"/>
        <path id="K" d="M1.073 1.638a.56.56 0 0 1-.562-.558c0-.308.252-.559.562-.559.312 0 .564.251.564.559h.487a1.05 1.05 0 0 0-2.1 0c0 .578.47 1.047 1.05 1.047.58 0 1.05-.468 1.05-1.047h-.487a.561.561 0 0 1-.564.558z"/>
        <path id="M" d="M1.624.815a.805.805 0 0 1-.807.803A.804.804 0 0 1 .01.815C.01.372.37.012.817.012c.445 0 .807.36.807.803z"/>
        <path id="O" d="M1.117 1.674a.56.56 0 0 1-.563-.558.56.56 0 0 1 .563-.558.56.56 0 0 1 .563.558h.487c0-.579-.47-1.047-1.05-1.047a1.048 1.048 0 1 0 0 2.094c.58 0 1.05-.468 1.05-1.047H1.68a.561.561 0 0 1-.563.558z"/>
        <path id="Q" d="M1.623.867a.806.806 0 0 1-.807.803A.804.804 0 0 1 .01.866C.01.424.371.064.816.064c.446 0 .807.36.807.803z"/>
        <path id="S" d="M1.548 1.45a.563.563 0 0 1-.994-.357.56.56 0 0 1 .562-.559c.312 0 .564.25.564.559h.487a1.05 1.05 0 0 0-2.1 0c0 .578.47 1.047 1.05 1.047a1.049 1.049 0 0 0 1.05-1.047H1.68a.549.549 0 0 1-.132.358z"/>
        <path id="U" d="M.036 8.167l.468.134L2.828.137 2.36.002z"/>
        <path id="W" d="M5.187.518L5.05.048.017 1.524l.136.47z"/>
        <path id="Y" d="M1.694 25.103c.899 0 1.63-.735 1.63-1.67V1.68c0-.903-.731-1.638-1.63-1.638C.762.042.03.777.03 1.68v21.752c0 .936.732 1.671 1.664 1.671zM13.676 8.296c-4.626 0-8.354 3.742-8.354 8.387 0 4.61 3.728 8.387 8.354 8.387 1.231 0 2.929.033 5.126-1.437.765-.501 1.198-1.37.798-2.206-.399-.801-1.43-1.27-2.196-.768-1.598 1.036-2.962 1.103-3.728 1.103-2.23 0-4.094-1.437-4.793-3.442h11.483c.932 0 1.664-.735 1.664-1.637 0-5.447-4.327-8.387-8.354-8.387zm0 3.308c1.997 0 4.127 1.069 4.826 3.408H8.883c.7-1.972 2.563-3.408 4.793-3.408zm18.805-3.242c-4.693 0-8.42 3.743-8.42 8.454 0 4.712 3.727 8.22 8.42 8.22 1.897 0 3.495-.468 4.926-1.67 0 .969.932 1.67 1.598 1.67.965 0 1.664-.701 1.664-1.67v-6.55c0-4.711-3.495-8.454-8.188-8.454zm0 13.4c-2.796 0-5.159-2.139-5.159-4.946s2.363-5.179 5.159-5.179 4.926 2.372 4.926 5.18c0 2.806-2.13 4.945-4.926 4.945zM51.02 8.296c-4.593 0-8.354 3.742-8.354 8.387v6.716c0 .936.732 1.67 1.63 1.67.933 0 1.665-.734 1.665-1.67v-6.716c0-2.807 2.263-5.08 5.059-5.08 2.796 0 5.059 2.273 5.059 5.08v6.716c0 .936.732 1.67 1.63 1.67.933 0 1.665-.734 1.665-1.67v-6.716c0-4.645-3.761-8.387-8.354-8.387zm18.705 16.907c4.626 0 8.354-3.742 8.354-8.387 0-4.61-3.728-8.387-8.354-8.387-4.593 0-8.354 3.776-8.354 8.387V31.82c0 .902.732 1.637 1.664 1.637.899 0 1.63-.735 1.63-1.638V23.5a8.318 8.318 0 0 0 5.06 1.704zm0-13.466c2.796 0 5.06 2.306 5.06 5.08 0 2.806-2.264 5.078-5.06 5.078s-5.06-2.272-5.06-5.045v-.034c0-2.807 2.264-5.079 5.06-5.079zm18.738-3.375c-4.692 0-8.42 3.743-8.42 8.454 0 4.712 3.728 8.22 8.42 8.22 1.898 0 3.495-.468 4.926-1.67 0 .969.932 1.67 1.598 1.67.965 0 1.664-.701 1.664-1.67v-6.55c0-4.711-3.495-8.454-8.188-8.454zm0 13.4c-2.795 0-5.159-2.139-5.159-4.946s2.364-5.179 5.16-5.179c2.795 0 4.925 2.372 4.925 5.18 0 2.806-2.13 4.945-4.926 4.945zm21.934-13.333c-.899 0-1.63.735-1.63 1.638v8.286a3.43 3.43 0 0 1-3.429 3.442c-1.864 0-3.428-1.537-3.428-3.442v-8.286c0-.903-.732-1.638-1.631-1.638s-1.63.735-1.63 1.638v8.353c.032 3.676 3.028 6.65 6.689 6.65 1.265 0 2.43-.335 3.428-.936v2.406a3.58 3.58 0 0 1-3.594 3.575c-1.365 0-2.596-.768-3.229-2.005-.366-.802-1.364-1.17-2.163-.768a1.646 1.646 0 0 0-.766 2.205c1.165 2.373 3.528 3.876 6.158 3.876 3.794 0 6.89-3.107 6.89-6.883V10.067c0-.903-.733-1.638-1.665-1.638z"/>
    </defs>
    <g fill="none" fill-rule="evenodd">
        <path fill="url(#a)" d="M28.628 11.34l-2.324-6.538-.531-.528-.427-.24-4.069-1.81-3.844-2.15-3.245.075-1.382.241a.245.245 0 0 0-.166.058l-2.325 1.385-4.967 1.382-2.39 3.475-2.9 8.806 1.736 6.45 2.584 4.162 7.137 2.048.589-.077.828.979.063.112.017.127-.745 4.222.012.158.062.134.11.05 5.193-.002.114-.094.039-.153-.026-.19-.938-4.148-.023-.104.71-1.798 1.323-.173 4.428-.111 3.002-2.36L29.434 14l-.806-2.66z" transform="translate(.975 .376)"/>
        <path fill="url(#b)" d="M28.628 11.34l-2.324-6.538-.531-.528-.427-.24-4.069-1.81-3.844-2.15-3.245.075-1.382.241a.245.245 0 0 0-.166.058l-2.325 1.385-4.967 1.382-2.39 3.475-2.9 8.806 1.736 6.45 2.584 4.162 7.137 2.048.589-.077.828.979.063.112.017.127-.745 4.222.012.158.062.134.11.05 5.193-.002.114-.094.039-.153-.026-.19-.938-4.148-.023-.104.71-1.798 1.323-.173 4.428-.111 3.002-2.36L29.434 14l-.806-2.66z" transform="translate(.975 .376)"/>
        <g transform="translate(12.901 27.328)">
            <mask id="d" fill="#fff">
                <use xlink:href="#c"/>
            </mask>
            <path fill="#AC1C37" d="M-.358-.357h6.666v7.8H-.358z" mask="url(#d)"/>
        </g>
        <g transform="translate(12.901 27.328)">
            <mask id="f" fill="#fff">
                <use xlink:href="#e"/>
            </mask>
            <path fill="#90152C" d="M-.708-2.895L9.978-.42l-.955 4.148-10.685-2.476z" mask="url(#f)"/>
        </g>
        <g>
            <mask id="h" fill="#fff">
                <use xlink:href="#g"/>
            </mask>
            <path fill="#FEFEFE" d="M-.372-.373h32.041v29.63H-.372z" mask="url(#h)"/>
        </g>
        <g transform="translate(.525 12.949)">
            <mask id="j" fill="#fff">
                <use xlink:href="#i"/>
            </mask>
            <path fill="#FEFEFE" d="M-.354-.358H10.26V9.675H-.354z" mask="url(#j)"/>
        </g>
        <g transform="translate(2.175 2.56)">
            <mask id="l" fill="#fff">
                <use xlink:href="#k"/>
            </mask>
            <path fill="#FEFEFE" d="M-.36-.326h22.247v20.432H-.36z" mask="url(#l)"/>
        </g>
        <g transform="translate(9.826 4.743)">
            <mask id="n" fill="#fff">
                <use xlink:href="#m"/>
            </mask>
            <path fill="#FEFEFE" d="M-.369-.332h14.192v18.138H-.37z" mask="url(#n)"/>
        </g>
        <g transform="translate(11.101 .075)">
            <mask id="p" fill="#fff">
                <use xlink:href="#o"/>
            </mask>
            <path fill="#FEFEFE" d="M-.335-.313H7.92v6.44H-.335z" mask="url(#p)"/>
        </g>
        <g transform="translate(9.526 21.682)">
            <mask id="r" fill="#fff">
                <use xlink:href="#q"/>
            </mask>
            <path fill="#FEFEFE" d="M-.318-.368h19.57v2.771H-.318z" mask="url(#r)"/>
        </g>
        <g transform="translate(21.302 7.905)">
            <mask id="t" fill="#fff">
                <use xlink:href="#s"/>
            </mask>
            <path fill="#FEFEFE" d="M-.324-.349H8.78v15.985H-.324z" mask="url(#t)"/>
        </g>
        <g transform="translate(21.677 13.25)">
            <mask id="v" fill="#fff">
                <use xlink:href="#u"/>
            </mask>
            <path fill="#FEFEFE" d="M-.325-.364H9.721V4H-.325z" mask="url(#v)"/>
        </g>
        <g transform="translate(5.1 21.757)">
            <mask id="x" fill="#fff">
                <use xlink:href="#w"/>
            </mask>
            <path fill="#FEFEFE" d="M-.345-.301h9.07v5.465h-9.07z" mask="url(#x)"/>
        </g>
        <g transform="translate(19.502 8.281)">
            <mask id="z" fill="#fff">
                <use xlink:href="#y"/>
            </mask>
            <path fill="#FEFEFE" d="M-.368-.354h9.316v19.79H-.368z" mask="url(#z)"/>
        </g>
        <g transform="translate(4.65 21.757)">
            <mask id="B" fill="#fff">
                <use xlink:href="#A"/>
            </mask>
            <path fill="#FEFEFE" d="M-.303-.357H6.06v5.714H-.303z" mask="url(#B)"/>
        </g>
        <g transform="translate(12.451 25.22)">
            <mask id="D" fill="#fff">
                <use xlink:href="#C"/>
            </mask>
            <path fill="#FEFEFE" d="M-.311-.347h8.233v2.913H-.311z" mask="url(#D)"/>
        </g>
        <g transform="translate(12.976 11.368)">
            <mask id="F" fill="#fff">
                <use xlink:href="#E"/>
            </mask>
            <path fill="#FEFEFE" d="M-.32-.352h2.362v2.358H-.32z" mask="url(#F)"/>
        </g>
        <g transform="translate(12.751 11.142)">
            <mask id="H" fill="#fff">
                <use xlink:href="#G"/>
            </mask>
            <path fill="#FEFEFE" d="M-.339-.37h2.85v2.847H-.34z" mask="url(#H)"/>
        </g>
        <g transform="translate(22.277 7.754)">
            <mask id="J" fill="#fff">
                <use xlink:href="#I"/>
            </mask>
            <path fill="#FEFEFE" d="M-.332-.325H2.03v2.358H-.332z" mask="url(#J)"/>
        </g>
        <g transform="translate(22.052 7.528)">
            <mask id="L" fill="#fff">
                <use xlink:href="#K"/>
            </mask>
            <path fill="#FEFEFE" d="M-.35-.344h2.849v2.848h-2.85z" mask="url(#L)"/>
        </g>
        <g transform="translate(9.226 21.155)">
            <mask id="N" fill="#fff">
                <use xlink:href="#M"/>
            </mask>
            <path fill="#FEFEFE" d="M-.364-.364h2.363v2.358H-.364z" mask="url(#N)"/>
        </g>
        <g transform="translate(8.926 20.853)">
            <mask id="P" fill="#fff">
                <use xlink:href="#O"/>
            </mask>
            <path fill="#FEFEFE" d="M-.308-.308h2.85V2.54h-2.85z" mask="url(#P)"/>
        </g>
        <g transform="translate(20.852 15.659)">
            <mask id="R" fill="#fff">
                <use xlink:href="#Q"/>
            </mask>
            <path fill="#FEFEFE" d="M-.365-.312h2.363v2.358H-.365z" mask="url(#R)"/>
        </g>
        <g transform="translate(20.552 15.433)">
            <mask id="T" fill="#fff">
                <use xlink:href="#S"/>
            </mask>
            <path fill="#FEFEFE" d="M-.308-.331h2.85v2.847h-2.85z" mask="url(#T)"/>
        </g>
        <g transform="translate(2.25 13.4)">
            <mask id="V" fill="#fff">
                <use xlink:href="#U"/>
            </mask>
            <path fill="#FEFEFE" d="M-.339-.374h3.542v9.052H-.339z" mask="url(#V)"/>
        </g>
        <g transform="translate(6.3 2.033)">
            <mask id="X" fill="#fff">
                <use xlink:href="#W"/>
            </mask>
            <path fill="#FEFEFE" d="M-.358-.328h5.92V2.37h-5.92z" mask="url(#X)"/>
        </g>
        <g transform="translate(37.579 9.636)">
            <mask id="Z" fill="#fff">
                <use xlink:href="#Y"/>
            </mask>
            <path fill="#000" d="M-.345-.334h112.781v34.167H-.345z" mask="url(#Z)"/>
        </g>
    </g>
</svg>
