<svg width="57" height="14" viewBox="0 0 57 14" fill="none" xmlns="http://www.w3.org/2000/svg">
<g clip-path="url(#clip0_386_3978)">
<path d="M15.283 10.9231C15.6196 10.9211 15.89 10.6467 15.888 10.3102C15.888 10.3082 15.888 10.3071 15.888 10.3051V2.27152C15.8729 1.93399 15.5865 1.67358 15.249 1.68861C14.9335 1.70263 14.6811 1.95603 14.6661 2.27152V10.3061C14.662 10.6437 14.9325 10.9201 15.27 10.9231C15.274 10.9231 15.279 10.9231 15.283 10.9231ZM19.725 4.71336C18.0133 4.71336 16.6261 6.10154 16.6271 7.81223C16.6271 9.52292 18.0143 10.9101 19.725 10.9101C20.1817 10.9101 20.8107 10.9221 21.626 10.3793C21.9094 10.194 22.0697 9.87347 21.9225 9.56498C21.7742 9.26852 21.3916 9.09625 21.1072 9.28054C20.6985 9.55297 20.2168 9.69519 19.725 9.68818C18.9217 9.68818 18.2076 9.17637 17.9482 8.41618H22.2059C22.5414 8.42119 22.8179 8.15276 22.8229 7.81724C22.8229 7.81523 22.8229 7.81323 22.8229 7.81123C22.8229 5.79907 21.2163 4.71236 19.725 4.71236V4.71336ZM19.725 5.93428C20.4652 5.93428 21.2554 6.3289 21.5148 7.19326H17.9482C18.2136 6.43907 18.9257 5.93528 19.725 5.93428ZM26.698 4.7384C24.9843 4.72738 23.5861 6.10655 23.5751 7.82024C23.5751 7.83426 23.5751 7.84728 23.5751 7.86131C23.5751 9.60204 24.9572 10.8981 26.698 10.8981C27.4011 10.8981 27.994 10.7248 28.5248 10.2811C28.5248 10.6387 28.8704 10.8981 29.1168 10.8981C29.4463 10.9101 29.7227 10.6517 29.7337 10.3232C29.7337 10.3092 29.7337 10.2951 29.7337 10.2811V7.86131C29.7337 6.12057 28.4377 4.7384 26.698 4.7384ZM26.698 9.68718C25.6613 9.68718 24.785 8.89693 24.785 7.86031C24.799 6.80965 25.6473 5.96132 26.698 5.9473C27.7346 5.9473 28.5248 6.82368 28.5248 7.86031C28.5248 8.89693 27.7346 9.68718 26.698 9.68718ZM33.5758 4.71236C31.8651 4.71336 30.4789 6.10054 30.4779 7.81123V10.2931C30.4629 10.6307 30.7233 10.9161 31.0608 10.9321C31.3983 10.9482 31.6838 10.6867 31.6998 10.3492C31.6998 10.3302 31.6998 10.3122 31.6998 10.2931V7.81223C31.6808 6.7766 32.5051 5.92126 33.5407 5.90123C34.5763 5.8822 35.4317 6.70649 35.4517 7.74212C35.4517 7.76516 35.4517 7.78819 35.4517 7.81123V10.2931C35.4367 10.6307 35.6971 10.9161 36.0346 10.9321C36.3722 10.9482 36.6576 10.6867 36.6736 10.3492C36.6736 10.3302 36.6736 10.3122 36.6736 10.2931V7.81123C36.6736 6.10054 35.2865 4.71336 33.5758 4.71236ZM40.5117 10.9592C42.2234 10.9592 43.6105 9.57199 43.6115 7.86131C43.6115 6.14962 42.2244 4.76244 40.5137 4.76144C38.802 4.76144 37.4148 6.14862 37.4138 7.8593V13.403C37.4288 13.7405 37.7153 14.001 38.0528 13.9859C38.3683 13.9719 38.6207 13.7185 38.6357 13.403V10.3302C39.1756 10.7398 39.8346 10.9612 40.5117 10.9602V10.9592ZM40.5117 5.98336C41.5483 5.98336 42.3886 6.82267 42.3896 7.8593C42.3896 8.89593 41.5503 9.73625 40.5137 9.73726C39.482 9.73726 38.6427 8.90495 38.6367 7.87232V7.86031C38.6367 6.82368 39.476 5.98336 40.5127 5.98336H40.5117ZM47.4576 4.7384C45.7439 4.72738 44.3467 6.10855 44.3357 7.82124C44.3357 7.83426 44.3357 7.84829 44.3357 7.86131C44.3357 9.60204 45.7178 10.8981 47.4586 10.8981C48.1617 10.8981 48.7546 10.7248 49.2855 10.2811C49.2855 10.6387 49.631 10.8981 49.8774 10.8981C50.2069 10.9101 50.4833 10.6517 50.4944 10.3232C50.4944 10.3092 50.4944 10.2951 50.4944 10.2811V7.86131C50.4944 6.12057 49.1983 4.7384 47.4586 4.7384H47.4576ZM47.4576 9.68718C46.421 9.68718 45.5446 8.89693 45.5446 7.86031C45.5586 6.80965 46.4069 5.96132 47.4576 5.9473C48.4942 5.9473 49.2845 6.82368 49.2845 7.86031C49.2845 8.89693 48.4942 9.68718 47.4576 9.68718ZM55.5914 4.76244C55.2578 4.76244 54.9874 5.03386 54.9864 5.36739V8.4292C54.9864 9.1313 54.4175 9.7012 53.7154 9.7012C53.0133 9.7012 52.4434 9.1323 52.4434 8.4302V5.36739C52.4544 5.03386 52.192 4.75442 51.8585 4.74341C51.525 4.73239 51.2455 4.9948 51.2345 5.32833C51.2345 5.34135 51.2345 5.35437 51.2345 5.36739V8.45224C51.2495 9.81237 52.3553 10.9071 53.7154 10.9091C54.1631 10.9121 54.6028 10.7929 54.9864 10.5636V11.453C54.9844 12.1851 54.3895 12.777 53.6583 12.775C53.6583 12.775 53.6573 12.775 53.6563 12.775C53.1495 12.775 52.6868 12.4876 52.4594 12.0349C52.3162 11.7354 51.9587 11.6092 51.6592 11.7514C51.6572 11.7514 51.6562 11.7534 51.6542 11.7534C51.3517 11.8976 51.2235 12.2602 51.3677 12.5627C51.3677 12.5647 51.3697 12.5667 51.3707 12.5687C51.9877 13.8337 53.5131 14.3585 54.7771 13.7425C55.6515 13.3169 56.2063 12.4305 56.2083 11.458V5.36839C56.2063 5.03186 55.9319 4.76144 55.5954 4.76344C55.5934 4.76344 55.5924 4.76344 55.5904 4.76344L55.5914 4.76244Z" fill="#EB5A7A"/>
<path d="M10.9763 4.32785L10.1139 1.91205L9.91759 1.71875L9.75934 1.63061L8.24997 0.958555L6.82473 0.164307L5.62184 0.192351L5.10803 0.281491C5.085 0.280489 5.06196 0.288502 5.04393 0.303525L4.18158 0.817333L2.33968 1.33114L1.48935 2.40984L0.320511 5.86827L1.02762 8.24601L1.98513 9.78443L4.63229 10.5406L4.85063 10.5126L5.15811 10.8741L5.25627 10.9172L5.26228 10.9643L4.98484 12.5247L4.98885 12.5828L5.01188 12.6319L5.05195 12.6509H6.90185L6.94392 12.6159L6.95794 12.5598L6.94793 12.4907L6.60338 10.9543L6.59437 10.9152L6.85778 10.2512L7.34856 10.1871L8.98813 10.147L10.2912 9.1935L11.3839 5.3154L10.9743 4.32785H10.9763Z" fill="#EB5A7A"/>
<path d="M4.78953 10.4735L5.18014 10.9322L5.20318 10.9733L5.20919 11.0203L4.93275 12.5798L4.93776 12.6389L4.9608 12.688L5.00086 12.707L6.92689 12.706L6.96895 12.6709L6.98398 12.6149L6.97396 12.5447L6.62641 11.0113L6.6174 10.9743L6.62241 10.9412L6.96495 10.1029L4.78953 10.4735Z" fill="#EB5A7A"/>
<path d="M11.5613 4.8967L11.1186 4.25368L10.77 3.0558L10.2843 1.89898L10.2532 1.8479L10.0349 1.60652L9.99281 1.57147L9.82054 1.47031L8.31718 0.840321L6.8679 0.0240378L6.82483 0H6.77576L5.58489 0.0220346L5.17925 0.0721133L4.99896 0.119187L4.96591 0.132208L4.81267 0.209329L4.1336 0.655029L2.32476 1.08671L2.17553 1.15481L1.29014 2.13936L1.2641 2.16841L1.25208 2.20547L0.138326 5.65288C0.133318 5.65989 0.0551954 5.77708 0.0441781 5.79711C0.0331608 5.81714 0.0301561 5.82115 0.0241466 5.83217C0.00411515 5.86522 -0.00389744 5.90428 0.002112 5.94234L0.0101246 5.9794L0.647126 7.99857L0.664152 8.03663L1.70078 9.78137L1.73784 9.84247L1.80595 9.8625L4.49617 10.6537L4.53724 10.6608L4.71352 10.6698L4.89981 10.6547L7.34866 10.3072L8.842 10.3002L9.0273 10.2822L9.07437 10.2711L9.23662 10.207L9.27669 10.186L10.4265 9.37974L11.1416 7.3195L11.5913 5.03391L11.6063 4.95979L11.5613 4.8977V4.8967ZM7.29658 9.83646L4.78162 9.34569L4.02043 8.35813C4.03044 8.34511 4.03946 8.33109 4.04847 8.31707L8.84701 8.64458L7.29658 9.83646ZM1.0788 7.82129L1.81196 5.25626L3.42449 7.88038C3.40947 7.89941 3.39544 7.91945 3.38343 7.94048L1.0788 7.82129ZM8.43637 2.81943C8.41133 2.83045 8.38829 2.84447 8.36626 2.8605L6.09168 1.88396L6.79879 0.40063L8.13489 1.1478L8.43637 2.81943ZM2.02028 5.08199L4.80666 4.7094C4.8297 4.74546 4.85874 4.77751 4.8918 4.80355L3.70092 7.73315C3.6849 7.73516 3.66988 7.73816 3.65385 7.74217L2.01928 5.08199H2.02028ZM5.99453 2.13736L8.205 3.08685C8.19699 3.11189 8.19198 3.13793 8.18998 3.16397L5.43265 4.26871C5.41862 4.24968 5.4026 4.23265 5.38557 4.21663L5.99453 2.13736ZM3.97035 7.79825L5.15521 4.88668C5.23634 4.88167 5.31346 4.85162 5.37656 4.79954L7.65915 6.03248C7.65213 6.05552 7.64713 6.07855 7.64512 6.10159C7.64512 6.1116 7.65013 6.12062 7.65113 6.13063L3.97035 7.79825ZM7.99668 5.726C7.92656 5.73301 7.85946 5.76005 7.80337 5.80312L5.50776 4.56417C5.51077 4.55215 5.51377 4.53913 5.51578 4.52711L8.28012 3.42138C8.31718 3.46845 8.36425 3.50551 8.41734 3.53155L7.99668 5.727V5.726ZM4.09955 8.04865C4.09955 8.04865 4.09955 8.04164 4.09955 8.03763L7.76331 6.38103C7.83542 6.45214 7.93358 6.4922 8.03474 6.4912C8.05677 6.4882 8.0778 6.48419 8.09884 6.47818L9.05634 8.38818L4.09955 8.04965V8.04865ZM8.3933 5.95436C8.36325 5.88926 8.31618 5.83417 8.25608 5.79511L8.68976 3.54557H8.70278L10.0319 5.92331L8.3933 5.95436ZM5.13117 4.11847C5.0861 4.11847 5.04103 4.12849 4.99896 4.14551L2.62123 1.42123L3.21216 1.24896L4.23577 1.00558L5.75415 2.01116L5.13217 4.11847H5.13117ZM4.79364 4.32179C4.77361 4.35985 4.75959 4.40092 4.75358 4.44298L1.95418 4.81657L2.40389 1.58749L4.79264 4.32079L4.79364 4.32179ZM3.57272 8.47532C3.6208 8.49535 3.67188 8.50637 3.72396 8.50637C3.74399 8.50336 3.76302 8.50036 3.78205 8.49435L4.46212 9.37473L2.36382 9.50694L3.57172 8.47532H3.57272ZM8.33621 6.34998C8.36526 6.31392 8.38629 6.27286 8.40031 6.22879L10.0549 6.19073L9.24664 8.17284L8.33621 6.35098V6.34998ZM10.2953 5.83617L8.9682 3.46144L10.7871 4.40092L10.8041 4.43697L11.1997 5.01087L10.2943 5.83617H10.2953ZM9.78348 1.87394L9.96277 2.07326L10.4295 3.181L10.6799 4.04135L8.95819 3.15095C8.94717 3.00172 8.85002 2.87352 8.7108 2.82043L8.43336 1.27801L9.65428 1.79182L9.78348 1.87495V1.87394ZM4.98394 0.528831L5.11214 0.46473L5.24034 0.429675L5.61293 0.382601L6.52036 0.366576L5.8513 1.75376L4.49117 0.854343L4.98394 0.528831ZM1.5836 2.3527L2.10442 1.77379L1.67073 4.89269L0.542962 5.57376L1.5836 2.3527ZM0.38872 5.9824L1.62767 5.23523L0.926565 7.68908L0.387718 5.9834L0.38872 5.9824ZM1.11787 8.09572L3.35338 8.2119C3.35839 8.23694 3.3664 8.26098 3.37541 8.28402L1.95218 9.49993L1.11787 8.09572ZM4.85674 10.2952L4.71852 10.3082L4.5773 10.3002L2.72239 9.75533L4.73355 9.62713L4.79164 9.62312L6.81582 10.0187L4.85774 10.2962L4.85674 10.2952ZM9.08539 9.87953L8.9682 9.9256L8.82197 9.93962L7.60105 9.94663L9.25565 8.67363L10.2692 8.74274L10.136 9.11933L9.08539 9.88053V9.87953ZM10.7941 7.22736L10.5116 8.05366L10.3634 8.47532L9.44295 8.41122L10.3754 6.12462L11.1466 5.42252L10.7951 7.22636L10.7941 7.22736Z" fill="white"/>
<path d="M11.5613 4.8967L11.1186 4.25368L10.77 3.0558L10.2843 1.89898L10.2532 1.8479L10.0349 1.60652L9.99281 1.57147L9.82054 1.47031L8.31718 0.840321L6.8679 0.0240378L6.82483 0H6.77576L5.58489 0.0220346L5.17925 0.0721133L4.99896 0.119187L4.96591 0.132208L4.81267 0.209329L4.1336 0.655029L2.32476 1.08671L2.17553 1.15481L1.29014 2.13936L1.2641 2.16841L1.25208 2.20547L0.138326 5.65288C0.133318 5.65989 0.0551954 5.77708 0.0441781 5.79711C0.0331608 5.81714 0.0301561 5.82115 0.0241466 5.83217C0.00411515 5.86522 -0.00389744 5.90428 0.002112 5.94234L0.0101246 5.9794L0.647126 7.99857L0.664152 8.03663L1.70078 9.78137L1.73784 9.84247L1.80595 9.8625L4.49617 10.6537L4.53724 10.6608L4.71352 10.6698L4.89981 10.6547L7.34866 10.3072L8.842 10.3002L9.0273 10.2822L9.07437 10.2711L9.23662 10.207L9.27669 10.186L10.4265 9.37974L11.1416 7.3195L11.5913 5.03391L11.6063 4.95979L11.5613 4.8977V4.8967ZM7.29658 9.83646L4.78162 9.34569L4.02043 8.35813C4.03044 8.34511 4.03946 8.33109 4.04847 8.31707L8.84701 8.64458L7.29658 9.83646ZM1.0788 7.82129L1.81196 5.25626L3.42449 7.88038C3.40947 7.89941 3.39544 7.91945 3.38343 7.94048L1.0788 7.82129ZM8.43637 2.81943C8.41133 2.83045 8.38829 2.84447 8.36626 2.8605L6.09168 1.88396L6.79879 0.40063L8.13489 1.1478L8.43637 2.81943ZM2.02028 5.08199L4.80666 4.7094C4.8297 4.74546 4.85874 4.77751 4.8918 4.80355L3.70092 7.73315C3.6849 7.73516 3.66988 7.73816 3.65385 7.74217L2.01928 5.08199H2.02028ZM5.99453 2.13736L8.205 3.08685C8.19699 3.11189 8.19198 3.13793 8.18998 3.16397L5.43265 4.26871C5.41862 4.24968 5.4026 4.23265 5.38557 4.21663L5.99453 2.13736ZM3.97035 7.79825L5.15521 4.88668C5.23634 4.88167 5.31346 4.85162 5.37656 4.79954L7.65915 6.03248C7.65213 6.05552 7.64713 6.07855 7.64512 6.10159C7.64512 6.1116 7.65013 6.12062 7.65113 6.13063L3.97035 7.79825ZM7.99668 5.726C7.92656 5.73301 7.85946 5.76005 7.80337 5.80312L5.50776 4.56417C5.51077 4.55215 5.51377 4.53913 5.51578 4.52711L8.28012 3.42138C8.31718 3.46845 8.36425 3.50551 8.41734 3.53155L7.99668 5.727V5.726ZM4.09955 8.04865C4.09955 8.04865 4.09955 8.04164 4.09955 8.03763L7.76331 6.38103C7.83542 6.45214 7.93358 6.4922 8.03474 6.4912C8.05677 6.4882 8.0778 6.48419 8.09884 6.47818L9.05634 8.38818L4.09955 8.04965V8.04865ZM8.3933 5.95436C8.36325 5.88926 8.31618 5.83417 8.25608 5.79511L8.68976 3.54557H8.70278L10.0319 5.92331L8.3933 5.95436ZM5.13117 4.11847C5.0861 4.11847 5.04103 4.12849 4.99896 4.14551L2.62123 1.42123L3.21216 1.24896L4.23577 1.00558L5.75415 2.01116L5.13217 4.11847H5.13117ZM4.79364 4.32179C4.77361 4.35985 4.75959 4.40092 4.75358 4.44298L1.95418 4.81657L2.40389 1.58749L4.79264 4.32079L4.79364 4.32179ZM3.57272 8.47532C3.6208 8.49535 3.67188 8.50637 3.72396 8.50637C3.74399 8.50336 3.76302 8.50036 3.78205 8.49435L4.46212 9.37473L2.36382 9.50694L3.57172 8.47532H3.57272ZM8.33621 6.34998C8.36526 6.31392 8.38629 6.27286 8.40031 6.22879L10.0549 6.19073L9.24664 8.17284L8.33621 6.35098V6.34998ZM10.2953 5.83617L8.9682 3.46144L10.7871 4.40092L10.8041 4.43697L11.1997 5.01087L10.2943 5.83617H10.2953ZM9.78348 1.87394L9.96277 2.07326L10.4295 3.181L10.6799 4.04135L8.95819 3.15095C8.94717 3.00172 8.85002 2.87352 8.7108 2.82043L8.43336 1.27801L9.65428 1.79182L9.78348 1.87495V1.87394ZM4.98394 0.528831L5.11214 0.46473L5.24034 0.429675L5.61293 0.382601L6.52036 0.366576L5.8513 1.75376L4.49117 0.854343L4.98394 0.528831ZM1.5836 2.3527L2.10442 1.77379L1.67073 4.89269L0.542962 5.57376L1.5836 2.3527ZM0.38872 5.9824L1.62767 5.23523L0.926565 7.68908L0.387718 5.9834L0.38872 5.9824ZM1.11787 8.09572L3.35338 8.2119C3.35839 8.23694 3.3664 8.26098 3.37541 8.28402L1.95218 9.49993L1.11787 8.09572ZM4.85674 10.2952L4.71852 10.3082L4.5773 10.3002L2.72239 9.75533L4.73355 9.62713L4.79164 9.62312L6.81582 10.0187L4.85774 10.2962L4.85674 10.2952ZM9.08539 9.87953L8.9682 9.9256L8.82197 9.93962L7.60105 9.94663L9.25565 8.67363L10.2692 8.74274L10.136 9.11933L9.08539 9.88053V9.87953ZM10.7941 7.22736L10.5116 8.05366L10.3634 8.47532L9.44295 8.41122L10.3754 6.12462L11.1466 5.42252L10.7951 7.22636L10.7941 7.22736Z" fill="white"/>
<path d="M6.85277 10.3774L6.62241 10.9413L6.6174 10.9744L6.61941 10.9824L5.08299 10.6278L6.85277 10.3774Z" fill="#EB5A7A"/>
</g>
<defs>
<clipPath id="clip0_386_3978">
<rect width="56.2083" height="14" fill="white"/>
</clipPath>
</defs>
</svg>
