<svg width="73" height="21" viewBox="0 0 73 21" fill="none" xmlns="http://www.w3.org/2000/svg">
<g clip-path="url(#clip0_396_3892)">
<path d="M14.1806 5.88806L13.0656 2.74787L12.8106 2.49413L12.6059 2.37926L10.6532 1.50957L8.80869 0.477295L7.2515 0.513147L6.58784 0.628861C6.55877 0.627853 6.53035 0.638373 6.50854 0.656804L5.39284 1.32182L3.00905 1.98557L1.86182 3.65458L0.470215 7.88417L1.30342 10.9815L2.54346 12.9811L5.96873 13.9644L6.25106 13.9274L6.64861 14.3978L6.67897 14.4514L6.68692 14.5126L6.32926 16.5404L6.33534 16.6164L6.36494 16.6804L6.41776 16.7046L8.90976 16.7036L8.96421 16.6583L8.98306 16.585L8.97045 16.4942L8.52077 14.5014L8.50954 14.4516L8.85033 13.5879L9.48492 13.505L11.6101 13.4516L13.0507 12.3178L14.5676 7.16589L14.1806 5.88806Z" fill="url(#paint0_linear_396_3892)"/>
<path d="M6.10889 13.4291L6.69337 14.1025L6.72844 14.1627L6.73748 14.2319L6.32343 16.5196L6.33069 16.6053L6.36515 16.6775L6.4262 16.7046L9.31364 16.7035L9.37648 16.6526L9.39825 16.5699L9.38374 16.4676L8.8627 14.2195L8.85001 14.1634L8.85666 14.1155L9.37105 12.8865L6.10889 13.4291Z" fill="#AC1C37"/>
<mask id="mask0_396_3892" style="mask-type:alpha" maskUnits="userSpaceOnUse" x="6" y="12" width="4" height="5">
<path fill-rule="evenodd" clip-rule="evenodd" d="M6.10889 13.4291L6.69337 14.1025L6.72844 14.1627L6.73748 14.2319L6.32343 16.5196L6.33069 16.6053L6.36515 16.6775L6.4262 16.7046L9.31364 16.7035L9.37648 16.6526L9.39825 16.5699L9.38374 16.4676L8.8627 14.2195L8.85001 14.1634L8.85666 14.1155L9.37105 12.8865L6.10889 13.4291Z" fill="white"/>
</mask>
<g mask="url(#mask0_396_3892)">
<path d="M5.86229 11.5518L11.3972 12.8015L10.9605 14.6516L5.42554 13.4019L5.86229 11.5518Z" fill="#90152C"/>
</g>
<path fill-rule="evenodd" clip-rule="evenodd" d="M9.52163 13.3705L6.34793 13.8207L6.10634 13.8409L5.87822 13.8287L5.82478 13.8195L2.33783 12.7936L2.24961 12.7676L2.20263 12.6885L0.858861 10.4251L0.836847 10.3759L0.0115394 7.75649L0.00168532 7.70749C-0.00423227 7.64318 0.00539184 7.61678 0.0312207 7.56511C0.0381682 7.55119 0.0464239 7.53657 0.0565078 7.51977C0.0710897 7.49548 0.0896041 7.46657 0.118472 7.42276C0.154853 7.36775 0.171495 7.34259 0.178246 7.33291L1.62185 2.85983L1.6372 2.81225L1.67062 2.7751L2.8191 1.49794L2.86795 1.44363L2.93897 1.42674L5.35543 0.852213L6.23567 0.273845L6.43408 0.173819L6.47721 0.157188L6.71227 0.0948677L7.23732 0.0297304L8.78094 0.00117548L8.84451 0L8.89989 0.03116L10.7767 1.08829L12.723 1.90896L12.9478 2.04115L13.0034 2.08663L13.2851 2.40065L13.3266 2.46618L13.9561 3.96477L14.4076 5.51851L14.9813 6.35217L15.0372 6.43329L15.0183 6.53001L14.4378 9.49546L14.0629 10.6007L13.5114 12.1695L13.4464 12.3544L13.2558 12.3235L13.2378 12.3424L13.2042 12.3716L12.0211 13.2152L11.9691 13.2431L11.7592 13.3237L11.6983 13.3381L11.4569 13.3609L9.52163 13.3705ZM5.89078 13.5947L5.90331 13.3607L5.93055 13.3621L5.95678 13.3699L5.89078 13.5947ZM2.55805 12.3699L5.93055 13.3621L6.11437 13.372L6.09698 13.3736L6.11891 13.6069L6.13144 13.373L6.11437 13.372L6.29316 13.3555L9.48737 12.9041L11.4325 12.8934L11.621 12.8749L11.5915 12.8862L11.6753 13.1049L11.6524 12.8718L11.621 12.8749L11.7737 12.8162L11.7495 12.8335L11.8853 13.0243L11.8014 12.8056L11.7737 12.8162L12.9144 12.0028L12.899 12.019L13.0684 12.1807L12.9326 11.9898L12.9144 12.0028L13.0021 11.9107L13.0872 11.8214L13.1348 11.8291L13.0698 12.014L13.2906 12.0918L13.328 11.8605L13.2089 11.8412L13.1348 11.8291L13.6204 10.4475L13.9865 9.37522L14.54 6.53689L14.5958 6.61801L14.5589 6.44021L14.54 6.53689L14.0007 5.75322L13.9687 5.68573L13.5157 4.12123L12.9106 2.68448L12.9368 2.71375L12.8953 2.64822L12.9106 2.68448L12.6787 2.42596L12.7107 2.44521L12.6551 2.39973L12.6787 2.42596L12.5138 2.32701L10.5714 1.50859L8.72596 0.47082L8.78957 0.4697L8.67062 0.439715L8.72596 0.47082L7.27101 0.49644L6.78764 0.557661L6.80377 0.55321L6.74162 0.327309L6.77102 0.559765L6.78764 0.557661L6.62385 0.602807L6.64461 0.592348L6.53932 0.383075L6.60147 0.608979L6.62385 0.602807L6.45832 0.686268L6.46963 0.678802L6.34091 0.483103L6.4462 0.692374L6.45832 0.686268L5.57821 1.26636L5.50357 1.29863L3.11817 1.86577L3.16701 1.81146L3.04714 1.88266L3.11817 1.86577L2.05191 3.05149L2.06729 3.00389L2.01852 3.08862L2.05191 3.05149L0.606321 7.52673C0.596047 7.54999 0.592443 7.55568 0.560351 7.60402C0.559487 7.60533 0.556532 7.60974 0.552336 7.61604C0.539816 7.63482 0.51625 7.67019 0.504282 7.68831C0.498699 7.69675 0.49349 7.70469 0.488503 7.71239L0.457972 7.61551L0.234755 7.686L0.467823 7.66451C0.473272 7.72372 0.4676 7.73928 0.449875 7.77473C0.463197 7.75217 0.475052 7.73319 0.488503 7.71239L1.27512 10.209L1.26126 10.1857L1.28328 10.2349L1.27512 10.209L2.55805 12.3699ZM2.55805 12.3699L2.46983 12.344L2.60503 12.4491L2.55805 12.3699Z" fill="#FEFEFE"/>
<path d="M2.41663 6.60456L2.17633 6.546L4.70154 10.6616L5.00033 10.4775L2.47566 6.3619L2.38424 6.21338L2.23536 6.30335L0.260742 7.49566L0.442532 7.7969L2.41663 6.60456Z" fill="#FEFEFE"/>
<path d="M4.78712 10.6752L4.91146 10.682L4.95848 10.5664L6.83956 5.93828L6.88031 5.8379L6.80928 5.75633L3.12542 1.53923L2.87258 1.24951L2.81982 1.63074L2.15274 6.43039L2.12087 6.65945L2.3502 6.6291L6.70063 6.04654L6.74243 6.03559L11.249 4.22773L11.3817 4.1749L11.3561 4.03371L10.8588 1.27304L10.5135 1.3358L11.0108 4.09594L11.1185 3.90192L6.6118 5.70926L6.6536 5.69827L2.30371 6.28083L2.50064 6.47901L3.16721 1.67885L2.86161 1.77037L6.54495 5.98799L6.51466 5.80599L4.63354 10.4336L4.8054 10.3243L1.06931 10.1303L1.05103 10.4812L4.78712 10.6752Z" fill="#FEFEFE"/>
<path d="M7.72394 2.37165L7.54215 2.29321L7.48624 2.48357L6.50887 5.8226L6.46862 5.9591L6.59348 6.02654L10.3604 8.06503L10.3714 7.75023L4.72388 10.3059L4.86804 10.6259L10.5161 8.07026L10.8389 7.92437L10.5276 7.75596L6.76064 5.71751L6.84581 5.92146L7.82318 2.5824L7.58549 2.69432L11.0442 4.18262L11.1832 3.85945L7.72394 2.37165Z" fill="#FEFEFE"/>
<path d="M7.49665 2.45744L7.75158 2.38685L5.54661 0.924675L5.35278 1.21753L7.55779 2.6797L7.72599 2.79109L7.81324 2.6091L8.95934 0.216597L8.6428 0.0649414L7.49665 2.45744Z" fill="#FEFEFE"/>
<path d="M13.6248 11.3623L13.6483 11.0114L4.62825 10.3943L4.60425 10.7452L13.6248 11.3623Z" fill="#FEFEFE"/>
<path d="M10.6006 7.83172L10.6163 7.94364L11.3555 4.09733L11.1026 4.22021L14.1131 5.77599L14.274 5.46378L11.2635 3.90802L11.0551 3.80029L11.0107 4.03091L10.2715 7.87722L10.26 7.93581L10.2866 7.98914L11.8455 11.1012L12.1589 10.9438L10.6006 7.83172Z" fill="#FEFEFE"/>
<path d="M13.2998 8.02081L13.365 8.01925L13.4137 7.97531L14.9066 6.61513L14.6705 6.35522L13.1775 7.71541L13.2914 7.66937L10.4397 7.73422L10.4475 8.08567L13.2998 8.02081Z" fill="#FEFEFE"/>
<path d="M6.13306 12.4886L6.46217 12.4677L6.26052 12.2061L4.91746 10.4626L4.63955 10.6771L5.98261 12.4206L6.1106 12.1377L2.46436 12.3709L2.4863 12.7213L6.13306 12.4886Z" fill="#FEFEFE"/>
<path d="M12.109 11.1618L12.1466 11.133L12.1644 11.0891L13.4578 7.91165L13.4897 7.83321L13.4484 7.75946L11.3359 3.97852L11.0297 4.15005L13.1423 7.931L13.1329 7.77881L11.8394 10.9563L11.8948 10.8831L9.37378 12.8242L9.58743 13.1024L12.109 11.1618Z" fill="#FEFEFE"/>
<path d="M2.26831 12.5465L2.49607 12.8136L4.96488 10.703L4.73712 10.4358L2.26831 12.5465Z" fill="#FEFEFE"/>
<path d="M6.08007 12.1003L6.0127 12.4455L9.54142 13.1358L9.6088 12.7907L6.08007 12.1003Z" fill="#FEFEFE"/>
<path d="M7.03602 5.84341C7.03602 6.05596 6.86238 6.2282 6.64816 6.2282C6.43426 6.2282 6.26099 6.05596 6.26099 5.84341C6.26099 5.63119 6.43426 5.45874 6.64816 5.45874C6.86238 5.45874 7.03602 5.63119 7.03602 5.84341Z" fill="#FEFEFE"/>
<path d="M6.64801 6.11102C6.49858 6.11102 6.37784 5.99103 6.37784 5.84333C6.37784 5.69592 6.49866 5.57585 6.64801 5.57585C6.79777 5.57585 6.91883 5.69596 6.91883 5.84333H7.15287C7.15287 5.56609 6.92657 5.34155 6.64801 5.34155C6.36974 5.34155 6.1438 5.56613 6.1438 5.84333C6.1438 6.12082 6.36966 6.34531 6.64801 6.34531C6.92665 6.34531 7.15287 6.12086 7.15287 5.84333H6.91883C6.91883 5.99099 6.79785 6.11102 6.64801 6.11102Z" fill="#FEFEFE"/>
<path d="M11.4996 4.12407C11.4996 4.33646 11.326 4.50891 11.1118 4.50891C10.8982 4.50891 10.7246 4.33646 10.7246 4.12407C10.7246 3.91185 10.8982 3.73926 11.1118 3.73926C11.326 3.73926 11.4996 3.91185 11.4996 4.12407Z" fill="#FEFEFE"/>
<path d="M11.1118 4.39195C10.9627 4.39195 10.8417 4.27176 10.8417 4.12431C10.8417 3.97693 10.9628 3.85662 11.1118 3.85662C11.2616 3.85662 11.3827 3.97686 11.3827 4.12431H11.6167C11.6167 3.84702 11.3904 3.62231 11.1118 3.62231C10.8338 3.62231 10.6077 3.84715 10.6077 4.12431C10.6077 4.40155 10.8338 4.62625 11.1118 4.62625C11.3904 4.62625 11.6167 4.40167 11.6167 4.12431H11.3827C11.3827 4.2718 11.2616 4.39195 11.1118 4.39195Z" fill="#FEFEFE"/>
<path d="M5.21253 10.5279C5.21253 10.7404 5.03893 10.9128 4.82467 10.9128C4.61077 10.9128 4.4375 10.7404 4.4375 10.5279C4.4375 10.3156 4.61077 10.1433 4.82467 10.1433C5.03893 10.1433 5.21253 10.3156 5.21253 10.5279Z" fill="#FEFEFE"/>
<path d="M4.82453 10.7958C4.67517 10.7958 4.5544 10.6758 4.5544 10.5282C4.5544 10.3806 4.67509 10.2607 4.82453 10.2607C4.97437 10.2607 5.09534 10.3807 5.09534 10.5282H5.32943C5.32943 10.2508 5.10313 10.0264 4.82453 10.0264C4.54625 10.0264 4.32031 10.2509 4.32031 10.5282C4.32031 10.8055 4.54625 11.0302 4.82453 11.0302C5.10313 11.0302 5.32943 10.8055 5.32943 10.5282H5.09534C5.09534 10.6757 4.97433 10.7958 4.82453 10.7958Z" fill="#FEFEFE"/>
<path d="M10.7997 7.91922C10.7997 8.01355 10.7656 8.10011 10.7084 8.16706C10.6373 8.25073 10.5308 8.30405 10.4118 8.30389C10.1979 8.30389 10.0247 8.13161 10.0247 7.91922C10.0247 7.70683 10.1979 7.53442 10.4118 7.53442C10.626 7.53442 10.7997 7.70683 10.7997 7.91922Z" fill="#FEFEFE"/>
<path d="M10.6194 8.09088C10.5679 8.15141 10.4928 8.18682 10.4118 8.1867C10.2622 8.1867 10.1415 8.06675 10.1415 7.91922C10.1415 7.7716 10.2623 7.65153 10.4117 7.65153C10.5614 7.65153 10.6825 7.77168 10.6825 7.91922H10.9165C10.9165 7.64181 10.6902 7.41724 10.4117 7.41724C10.1334 7.41724 9.90747 7.64185 9.90747 7.91922C9.90747 8.19654 10.1334 8.421 10.4117 8.421C10.562 8.4212 10.702 8.35515 10.7974 8.24295C10.8739 8.15355 10.9165 8.03954 10.9165 7.91922H10.6825C10.6825 7.98325 10.66 8.04332 10.6194 8.09088Z" fill="#FEFEFE"/>
<path d="M1.09741 10.3356L1.32256 10.3999L2.43942 6.48668L2.21427 6.42236L1.09741 10.3356Z" fill="#FEFEFE"/>
<path d="M5.51913 1.22096L5.45382 0.996094L3.03467 1.7026L3.10049 1.92747L5.51913 1.22096Z" fill="#FEFEFE"/>
<path fill-rule="evenodd" clip-rule="evenodd" d="M19.1224 16.9432C19.5521 16.9432 19.9023 16.5862 19.9023 16.1318V5.56786C19.9023 5.12971 19.5521 4.77271 19.1224 4.77271C18.6768 4.77271 18.3267 5.12971 18.3267 5.56786V16.1318C18.3267 16.5862 18.6768 16.9432 19.1224 16.9432ZM24.8518 8.78086C22.6396 8.78086 20.8571 10.5983 20.8571 12.8539C20.8571 15.0933 22.6396 16.927 24.8518 16.927H24.8902C25.4758 16.9273 26.275 16.9278 27.3027 16.2292C27.6688 15.9858 27.8757 15.5639 27.6847 15.1582C27.4937 14.7687 27.0003 14.5415 26.6343 14.785C25.8704 15.288 25.2178 15.3205 24.8518 15.3205C23.7855 15.3205 22.8943 14.6227 22.56 13.649H28.0507C28.4963 13.649 28.8465 13.292 28.8465 12.8539C28.8465 10.2089 26.7775 8.78086 24.8518 8.78086ZM27.1595 12.0425C26.8253 10.9066 25.8067 10.3874 24.8518 10.3874C23.7855 10.3874 22.8943 11.0851 22.5601 12.0425H27.1595ZM33.8438 8.81335C31.5998 8.81335 29.8173 10.6308 29.8173 12.9189C29.8173 15.2069 31.5998 16.9108 33.8438 16.9108C34.7509 16.9108 35.5149 16.6836 36.1992 16.0994C36.1992 16.57 36.6448 16.9108 36.9631 16.9108C37.4247 16.9108 37.7589 16.57 37.7589 16.0994V12.9189C37.7589 10.6308 36.0878 8.81335 33.8438 8.81335ZM31.377 12.9189C31.377 14.282 32.5069 15.3205 33.8438 15.3205C35.1807 15.3205 36.1992 14.282 36.1992 12.9189C36.1992 11.5558 35.1807 10.4037 33.8438 10.4037C32.5069 10.4037 31.377 11.5558 31.377 12.9189ZM42.7086 8.78086C40.5122 8.78086 38.7138 10.5983 38.7138 12.8539V16.1156C38.7138 16.57 39.0639 16.927 39.4936 16.927C39.9392 16.927 40.2894 16.57 40.2894 16.1156V12.8539C40.2894 11.4908 41.3715 10.3874 42.7086 10.3874C44.0453 10.3874 45.1277 11.4908 45.1277 12.8539V16.1156C45.1277 16.57 45.4776 16.927 45.9073 16.927C46.3529 16.927 46.7031 16.57 46.7031 16.1156V12.8539C46.7031 10.5983 44.9047 8.78086 42.7086 8.78086ZM55.6474 12.9188C55.6474 15.1744 53.8648 16.9919 51.6528 16.9919C50.7455 16.9919 49.9019 16.6835 49.2337 16.1643V20.2049C49.2337 20.643 48.8835 21 48.4537 21C48.0082 21 47.6579 20.643 47.6579 20.2049V12.935V12.9188C47.6579 10.6794 49.4563 8.84576 51.6528 8.84576C53.8648 8.84576 55.6474 10.6794 55.6474 12.9188ZM51.6528 10.4523C52.9895 10.4523 54.0719 11.5719 54.0719 12.9188C54.0719 14.2819 52.9895 15.3853 51.6528 15.3853C50.3158 15.3853 49.2337 14.2819 49.2337 12.935V12.9188C49.2337 11.5557 50.3158 10.4523 51.6528 10.4523ZM56.5863 12.9189C56.5863 10.6308 58.3689 8.81335 60.6129 8.81335C62.8568 8.81335 64.528 10.6308 64.528 12.9189V16.0994C64.528 16.57 64.1935 16.9108 63.7321 16.9108C63.4139 16.9108 62.9683 16.57 62.9683 16.0994C62.284 16.6836 61.5198 16.9108 60.6129 16.9108C58.3689 16.9108 56.5863 15.2069 56.5863 12.9189ZM60.6129 15.3205C59.2758 15.3205 58.1459 14.282 58.1459 12.9189C58.1459 11.5558 59.2758 10.4037 60.6129 10.4037C61.9495 10.4037 62.9683 11.5558 62.9683 12.9189C62.9683 14.282 61.9495 15.3205 60.6129 15.3205ZM70.3209 9.64092C70.3209 9.20276 70.6712 8.84576 71.1009 8.84576C71.5465 8.84576 71.8964 9.20276 71.8964 9.64092V17.6409C71.8964 19.4746 70.4166 20.9838 68.602 20.9838C67.3448 20.9838 66.2149 20.2535 65.6579 19.1014C65.4669 18.7119 65.6262 18.2251 66.0239 18.0304C66.4058 17.8357 66.8834 18.0142 67.0586 18.4036C67.3606 19.004 67.9497 19.3773 68.602 19.3773C69.5571 19.3773 70.3209 18.5984 70.3209 17.6409V16.4726C69.8433 16.7647 69.2863 16.9269 68.6818 16.9269C66.9313 16.9269 65.4985 15.4827 65.4827 13.6977V13.6815V9.64092C65.4827 9.20276 65.833 8.84576 66.2627 8.84576C66.6925 8.84576 67.0423 9.20276 67.0423 9.64092V13.6653C67.0423 14.5902 67.7903 15.3367 68.6818 15.3367C69.5887 15.3367 70.3209 14.5902 70.3209 13.6653V9.64092Z" fill="white"/>
</g>
<defs>
<linearGradient id="paint0_linear_396_3892" x1="-3.5439" y1="9.91199" x2="9.65564" y2="21.7059" gradientUnits="userSpaceOnUse">
<stop stop-color="#FFAD66"/>
<stop offset="1" stop-color="#FF5075"/>
</linearGradient>
<clipPath id="clip0_396_3892">
<rect width="72.1636" height="21" fill="white"/>
</clipPath>
</defs>
</svg>
